<?xml version="1.0" encoding="utf-8"?>
<!-- Generator: Adobe Illustrator 25.0.1, SVG Export Plug-In . SVG Version: 6.00 Build 0)  -->
<svg version="1.0"
	 id="svg8" sodipodi:docname="cabj.svg" xmlns:cc="http://creativecommons.org/ns#" xmlns:dc="http://purl.org/dc/elements/1.1/" xmlns:inkscape="http://www.inkscape.org/namespaces/inkscape" xmlns:rdf="http://www.w3.org/1999/02/22-rdf-syntax-ns#" xmlns:sodipodi="http://sodipodi.sourceforge.net/DTD/sodipodi-0.dtd" xmlns:svg="http://www.w3.org/2000/svg"
	 xmlns="http://www.w3.org/2000/svg" xmlns:xlink="http://www.w3.org/1999/xlink" x="0px" y="0px" viewBox="0 0 285.4 210.7"
	 style="enable-background:new 0 0 285.4 210.7;" xml:space="preserve">
<style type="text/css">
	.st0{fill:#103F79;}
	.st1{fill:#F3B229;}
</style>
<sodipodi:namedview  bordercolor="#666666" borderopacity="1.0" fit-margin-bottom="0.5" fit-margin-left="0.5" fit-margin-right="0.5" fit-margin-top="0.5" id="base" inkscape:current-layer="layer1" inkscape:cx="128.46132" inkscape:cy="6.9397703" inkscape:document-units="px" inkscape:pageopacity="0" inkscape:pageshadow="2" inkscape:window-height="1001" inkscape:window-maximized="1" inkscape:window-width="1920" inkscape:window-x="-9" inkscape:window-y="-9" inkscape:zoom="0.35" pagecolor="#00ffff" showgrid="false">
	</sodipodi:namedview>
<g id="layer1" transform="translate(-71.84461,-92.568618)" inkscape:groupmode="layer" inkscape:label="Layer 1">
	<g id="g48" transform="matrix(0.63374987,0,0,0.63374987,72.344746,93.068618)">
		<path id="Fill-97" inkscape:connector-curvature="0" class="st0" d="M325.5,82.8l-47.6-35.1l-2-1.4l-2,2l0,0
			c-0.9,0.9-17.3,16.4-47.6,16.4h-0.3l0,0l0,0h-0.3c-15.6,0-27.8-4.3-35.7-8.5c-4-2-7.1-4.3-9.1-5.7c-1.1-0.9-1.7-1.4-2.3-2
			l-0.6-0.6l0,0l0,0l-1.7-2l-2,1.4L126,82.2l-1.1,0.9v1.4v0.9c0,74.8,24.7,124.4,49.3,155.3c24.7,31.2,49.3,43.4,49.6,43.4l1.4,0.6
			l1.4-0.6c0.3,0,25.2-12.2,50.2-43.1s49.9-80.8,49.9-155.9v-1.4L325.5,82.8z"/>
		<path id="Fill-99" inkscape:connector-curvature="0" class="st1" d="M223.8,281.8c0,0-97.5-47.6-97.2-195.9l47.9-34.9
			c0,0,17.3,17.6,49.9,17.6h0.3c32.6,0,49.9-17.3,49.9-17.3l47.6,35.1C321.6,234.7,223.8,281.8,223.8,281.8z M327.8,78.3l-47.3-35.1
			l-7.1-5.1l-6.2,6l0,0c-0.3,0.6-15,14.5-42.5,14.5h-0.3c-27.5,0-42.2-14.2-42.8-14.7l0,0l-6-6l-7.1,5.1l-47.6,34.9l-4.3,3.1v5.1
			c-0.3,153.1,98.6,203,102.6,204.9l2,1.1l2.6,1.1l2.6-1.1l2-0.9c4.3-2,103.2-51.6,103.7-204.4v-5.1L327.8,78.3z"/>
		<path id="Combined-Shape" inkscape:connector-curvature="0" class="st1" d="M224.4,233l1.4,4.3h4.5l-3.7,2.8l1.4,4.3l-3.7-2.3
			l-3.7,2.6l1.4-4.3l-3.7-2.8h4.5L224.4,233z M247.3,235.6l1.4,4.3h4.5l-3.7,2.8l1.4,4.3l-3.7-2.3l-3.7,2.6l1.4-4.3l-3.7-2.8h4.5
			L247.3,235.6z M201.4,235.6l1.4,4.3h4.5l-3.7,2.8l1.4,4.3l-3.7-2.3l-3.7,2.6l1.4-4.3l-3.7-2.8h4.5L201.4,235.6z M213.9,246.1
			l1.4,4.3h4.5l-3.7,2.8l1.4,4.3l-3.7-2.6l-3.7,2.8l1.4-4.3l-3.7-2.8h4.5L213.9,246.1z M234.8,246.1l1.4,4.3h4.5l-3.7,2.8l1.4,4.3
			l-3.7-2.6l-3.7,2.6l1.4-4.3l-3.7-2.8h4.5L234.8,246.1z M224.4,257.1l1.4,4.3h4.5l-3.7,2.8l1.4,4.3l-3.7-2.3l-3.7,2.6l1.4-4.3
			l-3.7-2.8h4.5L224.4,257.1z M224.4,209.8l1.4,4.3h4.5l-3.7,2.8l1.4,4.3l-3.7-2.6l-3.7,2.6l1.4-4.3l-3.7-2.8h4.5L224.4,209.8z
			 M202.8,210.9l1.4,4.3h4.5l-3.7,2.8l1.4,4.3l-3.7-2.6l-4,2.8l1.4-4.3l-3.7-2.8h4.5L202.8,210.9z M246.2,210.9l1.4,4.3h4.5
			l-3.7,2.8l1.4,4.3l-3.7-2.6l-3.7,2.6l1.4-4.3l-3.7-2.8h4.5L246.2,210.9z M181,212.1l1.4,4.3h4.5l-3.7,2.8l1.4,4.3l-3.7-2.6
			l-3.7,2.6l1.4-4.3l-3.7-2.8h4.5L181,212.1z M267.7,212.1l1.4,4.3h4.5l-3.7,2.8l1.4,4.3l-3.7-2.6l-3.7,2.8l1.4-4.3l-3.7-2.8h4.5
			L267.7,212.1z M190.1,225.1l1.4,4.3h4.5l-3.7,2.8l1.4,4.3l-3.7-2.6l-3.7,2.6l1.4-4.3l-3.7-2.8h4.5L190.1,225.1z M258.7,225.1
			l1.4,4.3h4.5l-3.7,2.8l1.4,4.3l-3.7-2.6l-3.7,2.6l1.4-4.3l-3.7-2.8h4.5L258.7,225.1z M235.7,222.3l1.4,4.3h4.5l-3.7,2.8l1.4,4.3
			l-3.7-2.6l-3.7,2.6l1.4-4.3l-3.7-2.8h4.5L235.7,222.3z M213,222.3l1.4,4.3h4.5l-3.7,2.8l1.4,4.3l-3.7-2.6l-3.7,2.6l1.4-4.3
			l-3.7-2.8h4.5L213,222.3z M193.2,199.3l1.4,4.3h4.5l-3.7,2.8l1.4,4.3l-3.7-2.6l-4,2.6l1.4-4.3l-3.7-2.8h4.5L193.2,199.3z
			 M255.5,199.3l1.4,4.3h4.5l-3.7,2.8l1.4,4.3l-3.7-2.6l-3.7,2.6l1.4-4.3l-3.7-2.8h4.5L255.5,199.3z M172.2,200.4l1.4,4.3h4.5
			l-3.7,2.8l1.4,4.3l-3.7-2.6l-3.7,2.6l1.4-4.3l-3.7-2.8h4.5L172.2,200.4z M276.5,200.4l1.4,4.3h4.5l-3.7,2.8l1.4,4.3l-3.7-2.6
			l-3.7,2.6l1.4-4.3l-3.7-2.8h4.5L276.5,200.4z M213.9,196.8l1.4,4.3h4.5l-3.7,2.8l1.4,4.3l-3.7-2.6l-3.7,2.8l1.4-4.3l-3.7-2.8h4.5
			L213.9,196.8z M234.8,196.8l1.4,4.3h4.5l-3.7,2.8l1.4,4.3l-3.7-2.6l-3.7,2.6l1.4-4.3l-3.7-2.8h4.5L234.8,196.8z M285.3,186.3
			l1.4,4.3h4.5l-3.7,2.8l1.4,4.3l-3.7-2.6l-3.7,2.6l1.4-4.3l-3.7-2.8h4.5L285.3,186.3z M163.4,186.3l1.4,4.3h4.5l-3.7,2.8l1.4,4.3
			l-3.7-2.6l-3.7,2.6l1.4-4.3l-3.7-2.8h4.5L163.4,186.3z M264.9,186.3l1.4,4.3h4.5l-3.7,2.8l1.4,4.3l-3.7-2.6l-3.7,2.8l1.4-4.3
			l-3.7-2.8h4.5L264.9,186.3z M183.8,186.3l1.4,4.3h4.5l-3.7,2.8l1.1,4.3l-3.7-2.6l-3.7,2.6l1.4-4.3l-3.7-2.8h4.5L183.8,186.3z
			 M203.9,185.1l1.4,4.3h4.5l-3.7,2.8l1.1,4.3l-3.7-2.6l-3.7,2.6l1.4-4.3l-3.7-2.8h4.5L203.9,185.1z M244.8,185.1l1.4,4.3h4.5
			l-3.7,2.8l1.4,4.3l-3.7-2.6l-3.7,2.6l1.4-4.3l-3.7-2.8h4.5L244.8,185.1z M224.4,184l1.4,4.3h4.5l-3.7,2.8l1.4,4.3l-3.7-2.3
			l-3.7,2.6l1.4-4.3l-3.7-2.8h4.5L224.4,184z M273.7,172.1l1.4,4.3h4.5l-3.7,2.8l1.4,4.3l-3.7-2.6l-3.7,2.6l1.4-4.3l-3.7-2.8h4.5
			L273.7,172.1z M291,172.1l1.4,4.3h4.5l-3.7,2.8l1.4,4.3l-3.7-2.6l-3.7,2.6l1.4-4.3l-3.7-2.8h4.5L291,172.1z M157.7,172.1l1.4,4.3
			h4.5l-3.7,2.8l1.4,4.3l-3.7-2.6l-3.7,2.6l1.4-4.3l-3.7-2.8h4.5L157.7,172.1z M253.8,172.1l1.4,4.3h4.5l-3.7,2.8l1.4,4.3l-3.7-2.6
			l-3.7,2.6l1.4-4.3l-3.7-2.8h4.5L253.8,172.1z M175,172.1l1.4,4.3h4.5l-3.7,2.8l1.1,4.3l-3.7-2.6l-3.7,2.6l1.4-4.3l-3.7-2.8h4.5
			L175,172.1z M194.9,172.1l1.4,4.3h4.5l-3.7,2.8l1.4,4.3l-3.7-2.6l-3.7,2.6l1.4-4.3l-3.7-2.8h4.5L194.9,172.1z M234.3,172.1
			l1.4,4.3h4.5l-3.7,2.8l1.4,4.3l-3.7-2.6l-3.7,2.6l1.4-4.3l-3.7-2.8h4.5L234.3,172.1z M214.4,172.1l1.4,4.3h4.5l-3.7,2.8l1.4,4.3
			l-3.7-2.6l-3.7,2.6l1.4-4.3l-3.7-2.8h4.5L214.4,172.1z"/>
		<polygon id="Fill-173" class="st1" points="158,155.7 159.4,156.8 165.4,157.1 166.8,155.7 166.8,150.6 178.4,150.6 178.4,159.9 
			171.6,166.7 152.9,166.7 146.1,159.6 146.4,130.4 153.2,123.6 171.9,123.6 178.7,130.7 178.4,140.4 166.8,140.1 166.8,134.7 
			165.7,133.3 159.4,133.3 158,134.7 		"/>
		<path id="Fill-175" inkscape:connector-curvature="0" class="st1" d="M202.8,146.9h5.4l-2.8-6.8L202.8,146.9z M217.3,123.6v9.6
			H215l9.4,23.5h2.8v9.6h-16.4v-9.6h1.4l-0.6-2h-11.3l-1.1,2h1.4v9.6h-16.4v-9.6h2.6l9.6-23.5h-2v-9.6L217.3,123.6z"/>
		<path id="Fill-177" inkscape:connector-curvature="0" class="st1" d="M253.3,134.7l-1.4-1.4h-5.7v6.2h5.7l1.4-1.4V134.7z
			 M253.3,150.6l-1.4-1.4h-5.7v7.7h5.7l1.4-1.4V150.6z M264.6,147.2v12.5l-6.5,6.8h-25.5v-9.6h2.6v-23.5h-2.6v-9.6h25.5l6.5,6.8
			v11.1l-2.8,2.8L264.6,147.2z"/>
		<polygon id="Fill-179" class="st1" points="281.9,149.4 281.9,155.7 283.3,156.8 286.4,157.1 287.8,155.7 287.8,133.3 
			284.2,133.3 284.2,123.6 302.6,123.6 302.3,133.3 299.8,133.3 299.8,159.9 293,166.7 277.1,166.7 270,159.6 270,149.4 		"/>
		<path id="Combined-Shape_1_" inkscape:connector-curvature="0" class="st1" d="M196.9,92.2l1.4,4.5h4.5l-3.7,2.8l1.4,4.5l-3.7-2.6
			l-3.7,2.6l1.4-4.5l-3.7-2.8h4.5L196.9,92.2z M178.4,91l1.4,4.5h4.5l-3.7,2.8l1.4,4.5l-4-2.8l-3.7,2.6l1.4-4.5l-3.7-2.8h4.5
			L178.4,91z M141.6,91l1.4,4.5h4.5l-3.7,2.8l1.1,4.5l-3.7-2.8l-3.7,2.6l1.4-4.5l-3.7-2.8h4.5L141.6,91z M160,91l1.4,4.5h4.5
			l-3.7,2.8l1.4,4.5l-3.7-2.8l-3.7,2.6l1.4-4.5l-3.7-2.8h4.5L160,91z M215.3,92.2l1.4,4.5h4.5l-3.7,2.8l1.4,4.5l-3.7-2.6l-3.7,2.6
			l1.4-4.5l-3.7-2.8h4.5L215.3,92.2z M233.4,92.2l1.4,4.5h4.5l-3.7,2.8l1.4,4.5l-3.7-2.6l-3.7,2.6l1.4-4.5l-3.7-2.8h4.5L233.4,92.2z
			 M251.8,92.2l1.4,4.5h4.5l-3.7,2.8l1.4,4.5l-3.7-2.6l-3.7,2.6l1.4-4.5l-3.7-2.8h4.5L251.8,92.2z M270.3,91l1.4,4.5h4.5l-3.7,2.8
			l1.4,4.5l-3.4-2.8l-3.7,2.6l1.4-4.5l-3.7-2.8h4.5L270.3,91z M307.1,91l1.4,4.5h4.5l-3.7,2.8l1.4,4.5l-3.7-2.8l-3.7,2.8l1.1-4.5
			l-3.7-2.8h4.5L307.1,91z M288.7,91l1.4,4.5h4.5l-3.7,2.8l1.4,4.5l-3.7-2.8l-3.7,2.6l1.4-4.5l-3.7-2.8h4.5L288.7,91z M174.5,61.8
			l1.4,4.5h4.5l-3.7,2.8l1.4,4.5l-3.7-2.6l-3.7,2.6l1.4-4.5l-3.7-2.8h4.5L174.5,61.8z M274.2,61.8l1.4,4.5h4.5l-3.7,2.8l1.4,4.5
			l-3.7-2.6l-3.7,2.6l1.4-4.5l-3.7-2.8h4.5L274.2,61.8z M155.2,76l1.4,4.5h4.5l-3.7,2.8l1.4,4.5l-3.7-2.6l-3.7,2.6l1.4-4.5l-3.7-2.8
			h4.5L155.2,76z M214.4,78.3l1.4,4.3h4.5l-3.7,2.8l1.4,4.5l-3.7-2.6l-3.7,2.6l1.4-4.5l-3.7-2.8h4.5L214.4,78.3z M234.3,78.3
			l1.4,4.3h4.5l-3.7,2.8l1.4,4.5l-3.7-2.6l-3.7,2.6l1.4-4.5l-3.7-2.8h4.5L234.3,78.3z M175,77.1l1.4,4.5h4.5l-3.7,2.8l1.4,4.5
			l-3.7-2.6l-3.7,2.3l1.4-4.5l-3.7-2.8h4.5L175,77.1z M194.6,77.1l1.4,4.5h4.5l-3.7,2.8l1.4,4.5l-3.7-2.6l-3.7,2.3l1.4-4.5l-3.7-2.8
			h4.5L194.6,77.1z M293.5,76l1.4,4.5h4.5l-3.7,2.8l1.4,4.5l-3.7-2.6l-3.7,2.6l1.4-4.5l-3.7-2.8h4.5L293.5,76z M254.1,77.1l1.4,4.3
			h4.5l-3.7,2.8l1.4,4.5l-3.7-2.6l-4,2.6l1.4-4.5l-3.7-2.8h4.5L254.1,77.1z M273.7,77.1l1.4,4.5h4.5l-3.7,2.8l1.4,4.5l-3.7-2.6
			l-3.7,2.3l1.4-4.5l-3.7-2.8h4.5L273.7,77.1z M197.7,106.6l1.4,4.3h4.5l-3.7,2.8l1.4,4.5l-3.7-2.6l-3.7,2.6l1.4-4.5l-3.7-2.8h4.5
			L197.7,106.6z M179.8,106.6l1.4,4.5h4.5l-3.7,2.8l1.4,4.5l-3.7-2.6l-3.7,2.3l1.4-4.5l-3.7-2.8h4.5L179.8,106.6z M162,106.6
			l1.4,4.5h4.5l-3.7,2.8l1.4,4.5l-3.7-2.8l-3.7,2.6l1.4-4.5l-3.7-2.8h4.5L162,106.6z M144.1,106.6l1.4,4.5h4.5l-3.7,2.8l1.1,4.5
			l-3.7-2.6l-3.7,2.6l1.4-4.5l-3.7-2.8h4.5L144.1,106.6z M215.6,106.6l1.4,4.5h4.5l-3.7,2.8l1.4,4.5l-3.7-2.6l-3.7,2.6l1.4-4.5
			l-3.7-2.8h4.5L215.6,106.6z M233.1,106.6l1.4,4.5h4.5l-3.7,2.8l1.4,4.5l-3.7-2.6l-3.7,2.6l1.4-4.5l-3.7-2.8h4.5L233.1,106.6z
			 M268.9,106.6l1.4,4.3h4.5l-3.7,2.8l1.4,4.5l-3.7-2.6l-3.7,2.6l1.4-4.5l-3.7-2.8h4.5L268.9,106.6z M286.7,106.6l1.4,4.5h4.5
			L289,114l1.4,4.5l-3.7-2.8l-3.7,2.6l1.4-4.5l-3.7-2.8h4.5L286.7,106.6z M304.6,106.6l1.4,4.5h4.5l-3.7,2.8l1.4,4.5l-3.7-2.6
			l-3.7,2.3l1.1-4.5l-3.7-2.8h4.5L304.6,106.6z M251,106.6l1.4,4.5h4.5l-3.7,2.8l1.4,4.5L251,116l-3.7,2.6l1.4-4.5l-3.7-2.8h4.5
			L251,106.6z"/>
	</g>
</g>
</svg>
